<svg width="1729" height="484" viewBox="0 0 1729 484" fill="none" xmlns="http://www.w3.org/2000/svg">
<path d="M65.5 85.9999L176.512 194.467" stroke="#CFE3FF" stroke-width="15"/>
<path d="M176.868 194.954L179 58.5001" stroke="#CFE3FF" stroke-width="15"/>
<path d="M27.5 195L176.868 194.954" stroke="#CFE3FF" stroke-width="15"/>
<path d="M179.219 194.873L405.5 195" stroke="#CFE3FF" stroke-width="15"/>
<path d="M170 425L176.868 194.954" stroke="#CFE3FF" stroke-width="15"/>
<path d="M350.5 370L176.512 194.467" stroke="#CFE3FF" stroke-width="15"/>
<circle cx="170" cy="425" r="27.5" fill="#CFE3FF"/>
<circle cx="176.574" cy="194.66" r="62.6002" fill="#CFE3FF"/>
<circle cx="65.5" cy="86" r="27.5" fill="#CFE3FF"/>
<path d="M206.5 58.5C206.5 73.6878 194.188 86 179 86C163.812 86 151.5 73.6878 151.5 58.5C151.5 43.3122 163.812 31 179 31C194.188 31 206.5 43.3122 206.5 58.5Z" fill="#CFE3FF"/>
<circle cx="350.5" cy="370" r="27.5" fill="#CFE3FF"/>
<circle cx="27.5" cy="194" r="27.5" fill="#CFE3FF"/>
<circle cx="405.5" cy="194.5" r="27.5" fill="#CFE3FF"/>
<path d="M124.784 387V96.0909H317.398V146.801H186.29V216.119H304.614V266.83H186.29V387H124.784ZM354.116 387V168.818H412.781V206.886H415.054C419.031 193.345 425.707 183.117 435.082 176.205C444.457 169.197 455.253 165.693 467.469 165.693C470.499 165.693 473.766 165.883 477.27 166.261C480.774 166.64 483.851 167.161 486.503 167.824V221.517C483.662 220.665 479.732 219.907 474.713 219.244C469.694 218.581 465.101 218.25 460.935 218.25C452.033 218.25 444.079 220.191 437.071 224.074C430.158 227.862 424.666 233.165 420.594 239.983C416.616 246.801 414.628 254.661 414.628 263.562V387H354.116ZM517.788 387V168.818H578.3V387H517.788ZM548.186 140.693C539.19 140.693 531.472 137.71 525.033 131.744C518.688 125.684 515.516 118.439 515.516 110.011C515.516 101.678 518.688 94.5284 525.033 88.5625C531.472 82.5019 539.19 79.4716 548.186 79.4716C557.182 79.4716 564.853 82.5019 571.197 88.5625C577.637 94.5284 580.857 101.678 580.857 110.011C580.857 118.439 577.637 125.684 571.197 131.744C564.853 137.71 557.182 140.693 548.186 140.693ZM726.205 391.261C703.761 391.261 684.443 386.716 668.25 377.625C652.152 368.439 639.746 355.466 631.034 338.705C622.322 321.848 617.966 301.915 617.966 278.903C617.966 256.46 622.322 236.763 631.034 219.812C639.746 202.862 652.009 189.652 667.824 180.182C683.733 170.712 702.388 165.977 723.79 165.977C738.184 165.977 751.583 168.297 763.989 172.938C776.489 177.483 787.379 184.348 796.659 193.534C806.034 202.72 813.326 214.273 818.534 228.193C823.742 242.019 826.347 258.212 826.347 276.773V293.392H642.114V255.892H769.386C769.386 247.18 767.492 239.462 763.705 232.739C759.917 226.015 754.661 220.759 747.938 216.972C741.309 213.089 733.591 211.148 724.784 211.148C715.598 211.148 707.455 213.278 700.352 217.54C693.345 221.706 687.852 227.341 683.875 234.443C679.898 241.451 677.862 249.263 677.767 257.881V293.534C677.767 304.33 679.756 313.657 683.733 321.517C687.805 329.377 693.534 335.438 700.92 339.699C708.307 343.96 717.066 346.091 727.199 346.091C733.922 346.091 740.078 345.144 745.665 343.25C751.252 341.356 756.034 338.515 760.011 334.727C763.989 330.939 767.019 326.299 769.102 320.807L825.068 324.5C822.227 337.947 816.403 349.689 807.597 359.727C798.884 369.67 787.616 377.436 773.79 383.023C760.059 388.515 744.197 391.261 726.205 391.261ZM926.347 260.864V387H865.835V168.818H923.506V207.312H926.062C930.892 194.623 938.989 184.585 950.352 177.199C961.716 169.718 975.494 165.977 991.688 165.977C1006.84 165.977 1020.05 169.292 1031.32 175.92C1042.59 182.549 1051.35 192.019 1057.6 204.33C1063.85 216.545 1066.97 231.129 1066.97 248.08V387H1006.46V258.875C1006.55 245.523 1003.15 235.106 996.233 227.625C989.32 220.049 979.803 216.261 967.682 216.261C959.538 216.261 952.341 218.013 946.091 221.517C939.936 225.021 935.106 230.134 931.602 236.858C928.193 243.487 926.441 251.489 926.347 260.864ZM1195.06 390.551C1178.49 390.551 1163.48 386.29 1150.03 377.767C1136.68 369.15 1126.07 356.508 1118.21 339.841C1110.45 323.08 1106.57 302.53 1106.57 278.193C1106.57 253.193 1110.59 232.407 1118.64 215.835C1126.69 199.169 1137.39 186.716 1150.74 178.477C1164.19 170.144 1178.92 165.977 1194.92 165.977C1207.13 165.977 1217.31 168.061 1225.46 172.227C1233.7 176.299 1240.33 181.413 1245.35 187.568C1250.46 193.629 1254.34 199.595 1256.99 205.466H1258.84V96.0909H1319.21V387H1259.55V352.057H1256.99C1254.15 358.117 1250.13 364.131 1244.92 370.097C1239.81 375.968 1233.13 380.845 1224.89 384.727C1216.75 388.61 1206.8 390.551 1195.06 390.551ZM1214.24 342.398C1223.99 342.398 1232.23 339.746 1238.95 334.443C1245.77 329.045 1250.98 321.517 1254.58 311.858C1258.27 302.199 1260.12 290.883 1260.12 277.909C1260.12 264.936 1258.32 253.667 1254.72 244.102C1251.12 234.538 1245.91 227.152 1239.1 221.943C1232.28 216.735 1223.99 214.131 1214.24 214.131C1204.29 214.131 1195.91 216.83 1189.1 222.227C1182.28 227.625 1177.12 235.106 1173.61 244.67C1170.11 254.235 1168.36 265.314 1168.36 277.909C1168.36 290.598 1170.11 301.82 1173.61 311.574C1177.21 321.233 1182.37 328.809 1189.1 334.301C1195.91 339.699 1204.29 342.398 1214.24 342.398ZM1429.47 96.0909V387H1368.96V96.0909H1429.47ZM1515.3 468.818C1507.63 468.818 1500.44 468.203 1493.71 466.972C1487.08 465.835 1481.59 464.367 1477.23 462.568L1490.87 417.398C1497.97 419.576 1504.37 420.759 1510.05 420.949C1515.82 421.138 1520.79 419.813 1524.96 416.972C1529.22 414.131 1532.68 409.301 1535.33 402.483L1538.88 393.25L1460.62 168.818H1524.25L1569.42 329.045H1571.69L1617.29 168.818H1681.35L1596.55 410.58C1592.48 422.322 1586.94 432.549 1579.93 441.261C1573.02 450.068 1564.26 456.839 1553.65 461.574C1543.05 466.403 1530.26 468.818 1515.3 468.818Z" fill="#007AFF"/>
</svg>
