<svg width="86px" height="86px" viewBox="0 0 866 843" fill="none" xmlns="http://www.w3.org/2000/svg">
<path d="M131 110L353.025 326.934" stroke="#007AFF" stroke-width="30"/>
<path d="M353.736 327.908L358 55" stroke="#007AFF" stroke-width="30"/>
<path d="M55 328L353.736 327.908" stroke="#007AFF" stroke-width="30"/>
<path d="M358.439 327.745L811 328" stroke="#007AFF" stroke-width="30"/>
<path d="M340 788L353.736 327.908" stroke="#007AFF" stroke-width="30"/>
<path d="M701 678L353.025 326.934" stroke="#007AFF" stroke-width="30"/>
<circle cx="340" cy="788" r="54.5" fill="#007AFF" stroke="#007AFF"/>
<circle cx="353.148" cy="327.321" r="124.7" fill="#007AFF" stroke="#007AFF"/>
<circle cx="131" cy="110" r="54.5" fill="#007AFF" stroke="#007AFF"/>
<path d="M358 0.5C388.1 0.5 412.5 24.9005 412.5 55C412.5 85.0995 388.1 109.5 358 109.5C327.9 109.5 303.5 85.0995 303.5 55C303.5 24.9005 327.9 0.5 358 0.5Z" fill="#007AFF" stroke="#007AFF"/>
<circle cx="701" cy="678" r="54.5" fill="#007AFF" stroke="#007AFF"/>
<circle cx="55" cy="326" r="54.5" fill="#007AFF" stroke="#007AFF"/>
<circle cx="811" cy="327" r="54.5" fill="#007AFF" stroke="#007AFF"/>
</svg>
